<svg width="100" height="100" viewBox="0 0 100 100" fill="none" xmlns="http://www.w3.org/2000/svg">
<g id="Apple Podcasts">
<path id="background" fill-rule="evenodd" clip-rule="evenodd" d="M98.0333 86.6667C97.0667 89.1333 94.8333 92.6 91.6333 95.0667C89.8 96.4667 87.6 97.8333 84.6 98.7333C81.4 99.7 77.4333 100 72.5 100H27.5C22.5667 100 18.6333 99.6667 15.4 98.7333C12.4 97.8333 10.2 96.5 8.36667 95.0667C5.2 92.6333 2.93333 89.1333 1.96667 86.6667C0.0333335 81.7 0 76.0667 0 72.5V27.5C0 23.9333 0.0333335 18.3 1.96667 13.3333C2.93333 10.8667 5.16667 7.4 8.36667 4.93333C10.2 3.53333 12.4 2.16667 15.4 1.26667C18.6333 0.333333 22.5667 0 27.5 0H72.5C77.4333 0 81.3667 0.333333 84.6 1.26667C87.6 2.16667 89.8 3.5 91.6333 4.93333C94.8 7.36667 97.0667 10.8667 98.0333 13.3333C100 18.3 100 23.9667 100 27.5V72.5C100 76.0667 99.9667 81.7 98.0333 86.6667Z" fill="url(#paint0_linear_187_1339)"/>
<g id="icon">
<path id="body" d="M58.5653 60.3671C58.432 59.1671 58.032 58.3004 57.232 57.5004C55.732 55.9337 53.0986 54.9004 49.9986 54.9004C46.8986 54.9004 44.2653 55.9004 42.7653 57.5004C41.9986 58.3337 41.5653 59.1671 41.432 60.3671C41.1653 62.7004 41.332 64.7004 41.5986 67.9337C41.8653 71.0004 42.3653 75.1004 42.9986 79.2337C43.4653 82.2004 43.832 83.8004 44.1653 84.9337C44.732 86.8004 46.7653 88.4004 49.9986 88.4004C53.232 88.4004 55.2986 86.7671 55.832 84.9337C56.1653 83.8004 56.532 82.2004 56.9986 79.2337C57.632 75.0671 58.132 71.0004 58.3986 67.9337C58.6986 64.7004 58.832 62.7004 58.5653 60.3671Z" fill="white"/>
<path id="head" d="M58.2008 43.366C58.2008 47.8994 54.5341 51.566 50.0008 51.566C45.4674 51.566 41.8008 47.8994 41.8008 43.366C41.8008 38.8327 45.4674 35.166 50.0008 35.166C54.5341 35.166 58.2008 38.866 58.2008 43.366Z" fill="white"/>
<path id="ring" d="M49.9017 11.0665C30.7683 11.1331 15.1017 26.6665 14.835 45.7998C14.635 61.2998 24.535 74.5665 38.3683 79.4331C38.7017 79.5665 39.035 79.2665 39.0017 78.9331C38.835 77.7331 38.635 76.5331 38.5017 75.3331C38.435 74.8998 38.1683 74.5665 37.8017 74.3665C26.8683 69.5998 19.235 58.6331 19.3683 45.9331C19.535 29.2665 33.135 15.6998 49.7683 15.5665C66.8017 15.4331 80.7017 29.2331 80.7017 46.2331C80.7017 58.7998 73.1017 69.5998 62.2683 74.3665C61.8683 74.5331 61.6017 74.8998 61.5683 75.3331C61.4017 76.5331 61.235 77.7331 61.0683 78.9331C61.0017 79.2998 61.3683 79.5665 61.7017 79.4331C75.4017 74.6331 85.235 61.5665 85.235 46.2331C85.1683 26.8331 69.335 11.0331 49.9017 11.0665Z" fill="white"/>
<path id="ring_2" d="M49.1039 22.7329C36.6372 23.1995 26.6372 33.4995 26.4705 45.9662C26.3705 54.1662 30.4705 61.4329 36.7705 65.7329C37.0705 65.9329 37.5039 65.6995 37.5039 65.3329C37.4039 63.8995 37.4039 62.6329 37.4705 61.2995C37.5039 60.8662 37.3372 60.4662 37.0039 60.1662C33.1705 56.5662 30.8372 51.4329 30.9705 45.7662C31.2372 35.7662 39.2705 27.6329 49.2705 27.2329C60.1372 26.7995 69.0705 35.5329 69.0705 46.2662C69.0705 51.7329 66.7372 56.6662 63.0372 60.1662C62.7372 60.4662 62.5705 60.8662 62.5705 61.2995C62.6372 62.5995 62.6039 63.8662 62.5372 65.2995C62.5039 65.6662 62.9372 65.9329 63.2705 65.6995C69.4705 61.4662 73.5705 54.2995 73.5705 46.2329C73.6039 32.9662 62.5039 22.1995 49.1039 22.7329Z" fill="white"/>
</g>
</g>
<defs>
<linearGradient id="paint0_linear_187_1339" x1="50" y1="0" x2="50" y2="100" gradientUnits="userSpaceOnUse">
<stop stop-color="#F452FF"/>
<stop offset="1" stop-color="#832BC1"/>
</linearGradient>
</defs>
</svg>
