<svg width="100" height="100" viewBox="0 0 100 100" fill="none" xmlns="http://www.w3.org/2000/svg">
<g id="Google Podcasts">
<g id="Vector">
<path fill-rule="evenodd" clip-rule="evenodd" d="M6.95839 39.6936C10.8014 39.6936 13.9168 42.809 13.9168 46.652V53.3507C13.9168 57.1937 10.8014 60.3091 6.95839 60.3091C3.11538 60.3091 0 57.1937 0 53.3507V46.652C0 42.809 3.11538 39.6936 6.95839 39.6936Z" fill="#0066D9"/>
<path fill-rule="evenodd" clip-rule="evenodd" d="M93.0416 39.6936C96.8846 39.6936 100 42.809 100 46.652V53.3507C100 57.1937 96.8846 60.3091 93.0416 60.3091C89.1986 60.3091 86.0832 57.1937 86.0832 53.3507V46.652C86.0832 42.809 89.1986 39.6936 93.0416 39.6936Z" fill="#4285F4"/>
<path fill-rule="evenodd" clip-rule="evenodd" d="M28.4792 19.5982C32.3222 19.5982 35.4376 22.7136 35.4376 26.5566V48.4668C35.4376 52.3098 32.3222 55.4252 28.4792 55.4252C24.6362 55.4252 21.5208 52.3098 21.5208 48.4668V26.5566C21.5208 22.7136 24.6362 19.5982 28.4792 19.5982ZM28.4792 59.7902C32.3222 59.7902 35.4376 62.9056 35.4376 66.7486V73.4473C35.4376 77.2903 32.3222 80.4057 28.4792 80.4057C24.6362 80.4057 21.5208 77.2903 21.5208 73.4473V66.7486C21.5208 62.9056 24.6362 59.7902 28.4792 59.7902Z" fill="#EA4335"/>
<path fill-rule="evenodd" clip-rule="evenodd" d="M71.5208 19.5958C75.3638 19.5958 78.4792 22.7111 78.4792 26.5542V33.2529C78.4792 37.0959 75.3638 40.2113 71.5208 40.2113C67.6778 40.2113 64.5624 37.0959 64.5624 33.2529V26.5542C64.5624 22.7111 67.6778 19.5958 71.5208 19.5958ZM71.5208 44.5772C75.3638 44.5772 78.4792 47.6926 78.4792 51.5356V73.4459C78.4792 77.2889 75.3638 80.4042 71.5208 80.4042C67.6778 80.4042 64.5624 77.2889 64.5624 73.4459V51.5356C64.5624 47.6926 67.6778 44.5772 71.5208 44.5772Z" fill="#34A853"/>
<path fill-rule="evenodd" clip-rule="evenodd" d="M50 0C53.843 0 56.9584 3.11538 56.9584 6.95839V13.6571C56.9584 17.5001 53.843 20.6155 50 20.6155C46.157 20.6155 43.0416 17.5001 43.0416 13.6571V6.95839C43.0416 3.11538 46.157 0 50 0ZM50 25.1799C53.843 25.1799 56.9584 28.2952 56.9584 32.1382V67.8642C56.9584 71.7072 53.843 74.8226 50 74.8226C46.157 74.8226 43.0416 71.7072 43.0416 67.8642V32.1382C43.0416 28.2952 46.157 25.1799 50 25.1799ZM50 79.385C53.843 79.385 56.9584 82.5004 56.9584 86.3434V93.0421C56.9584 96.8851 53.843 100 50 100C46.157 100 43.0416 96.8851 43.0416 93.0421V86.3434C43.0416 82.5004 46.157 79.385 50 79.385Z" fill="#FAB908"/>
</g>
</g>
</svg>
