<svg preserveAspectRatio="none" viewBox="0 0 454 358" fill="none" xmlns="http://www.w3.org/2000/svg">
<path d="M40 20C40 8.9543 31.0457 0 20 0C8.9543 0 0 8.9543 0 20H40ZM454 24C454 12.9543 445.046 4 434 4C422.954 4 414 12.9543 414 24H454ZM151.5 318C140.454 318 131.5 326.954 131.5 338C131.5 349.046 140.454 358 151.5 358V318ZM303 358C314.046 358 323 349.046 323 338C323 326.954 314.046 318 303 318V358ZM0 20V139H40V20H0ZM454 139V24H414V139H454ZM206 239V338H246V239H206ZM226 318H151.5V358H226V318ZM226 358H303V318H226V358ZM120 259H227.75V219H120V259ZM227.75 259H334V219H227.75V259ZM414 139C414 183.183 378.183 219 334 219V259C400.274 259 454 205.274 454 139H414ZM0 139C0 205.274 53.7258 259 120 259V219C75.8172 219 40 183.183 40 139H0Z" fill="#030043"/>
</svg>
