<svg width="440" height="140" viewBox="0 0 440 140" fill="none" xmlns="http://www.w3.org/2000/svg">
<path d="M0 0H370C408.66 0 440 31.3401 440 70C440 108.66 408.66 140 370 140H0V0Z" fill="white"/>
<circle cx="370" cy="70" r="57" fill="#030043"/>
<path d="M387.163 66.5552C389.764 68.0904 391.065 68.858 391.065 70C391.065 71.142 389.764 71.9096 387.163 73.4448L365.283 86.358C362.605 87.9383 361.267 88.7284 360.258 88.1527C359.25 87.577 359.25 86.0224 359.25 82.9132L359.25 57.0868C359.25 53.9776 359.25 52.423 360.258 51.8473C361.267 51.2716 362.605 52.0617 365.283 53.642L387.163 66.5552Z" fill="white"/>
</svg>
