<svg width="100" height="100" viewBox="0 0 100 100" fill="none" xmlns="http://www.w3.org/2000/svg">
<g id="Group 427326610">
<circle id="bg" cx="50" cy="50" r="50" fill="#1ED760"/>
<path id="spotify" d="M69.3861 67.0316C68.6262 68.2374 67.005 68.575 65.7385 67.8515C55.7583 62.0638 43.2451 60.7616 28.4522 63.9448C27.0337 64.2342 25.6152 63.4143 25.3112 62.0638C25.0072 60.7134 25.8685 59.3629 27.287 59.0735C43.4478 55.5527 57.3288 57.0478 68.4742 63.559C69.7407 64.2824 70.146 65.8258 69.3861 67.0316ZM74.5535 56.035C73.5909 57.5301 71.5645 57.9642 69.994 57.096C58.5953 50.392 41.2187 48.4627 27.7429 52.3694C25.9698 52.8517 24.146 51.9354 23.6394 50.2955C23.1328 48.6074 24.0953 46.8711 25.8685 46.3888C41.2693 41.9516 60.4191 44.0737 73.5402 51.7424C75.0094 52.6106 75.516 54.5398 74.5535 56.035ZM75.0094 44.556C61.331 36.8391 38.787 36.1156 25.7165 39.8776C23.6394 40.5046 21.4103 39.3953 20.7517 37.3696C20.0931 35.3922 21.309 33.27 23.3861 32.643C38.3817 28.3023 63.3068 29.1704 79.0116 38.0449C80.8861 39.106 81.494 41.421 80.3794 43.2056C79.3156 45.0383 76.8839 45.6653 75.0094 44.556Z" fill="white"/>
</g>
</svg>
